<svg width="16" height="16" viewBox="0 0 16 16" fill="none" xmlns="http://www.w3.org/2000/svg">
<path d="M8.6 7C8.2 6.9 7.8 6.7 7.5 6.4C7.2 6.3 7.1 6 7.1 5.8C7.1 5.6 7.2 5.3 7.4 5.2C7.7 5 8 4.8 8.3 4.9C8.9 4.9 9.4 5.2 9.7 5.6L10.6 4.4C10.3 4.1 10 3.9 9.7 3.7C9.4 3.5 9 3.4 8.6 3.4V2H7.4V3.4C6.9 3.5 6.4 3.8 6 4.2C5.6 4.7 5.3 5.3 5.4 5.9C5.4 6.5 5.6 7.1 6 7.5C6.5 8 7.2 8.3 7.8 8.6C8.1 8.7 8.5 8.9 8.8 9.1C9 9.3 9.1 9.6 9.1 9.9C9.1 10.2 9 10.5 8.8 10.8C8.5 11.1 8.1 11.2 7.8 11.2C7.4 11.2 6.9 11.1 6.6 10.8C6.3 10.6 6 10.3 5.8 10L4.8 11.1C5.1 11.5 5.4 11.8 5.8 12.1C6.3 12.4 6.9 12.7 7.5 12.7V14H8.6V12.5C9.2 12.4 9.7 12.1 10.1 11.7C10.6 11.2 10.9 10.4 10.9 9.7C10.9 9.1 10.7 8.4 10.2 8C9.7 7.5 9.2 7.2 8.6 7V7ZM8 0C3.6 0 0 3.6 0 8C0 12.4 3.6 16 8 16C12.4 16 16 12.4 16 8C16 3.6 12.4 0 8 0ZM8 14.9C4.2 14.9 1.1 11.8 1.1 8C1.1 4.2 4.2 1.1 8 1.1C11.8 1.1 14.9 4.2 14.9 8C14.9 11.8 11.8 14.9 8 14.9V14.9Z" fill="#298448"/>
</svg>
