<svg width="40" height="40" viewBox="0 0 40 40" fill="none" xmlns="http://www.w3.org/2000/svg">
<path d="M20 0C8.75 0 0 8.75 0 20C0 33.125 11.875 38.75 13.75 38.75C15 38.75 15 38.125 15 37.5V34.375C10.625 35.625 8.75 33.125 8.125 31.25C8.125 31.25 8.125 30.625 6.875 29.375C6.25 28.75 3.75 27.5 6.25 27.5C8.125 27.5 9.375 30 9.375 30C11.25 32.5 13.75 31.875 15 31.25C15 30 16.25 28.75 16.25 28.75C11.25 28.125 7.5 26.25 7.5 19.375C7.5 16.875 8.125 15 9.375 13.75C9.375 13.75 8.125 11.25 9.375 8.125C9.375 8.125 12.5 8.125 15 10.625C16.875 9.375 23.125 9.375 25 10.625C27.5 8.125 30.625 8.125 30.625 8.125C31.875 12.5 30.625 13.75 30.625 13.75C31.875 15 32.5 16.875 32.5 19.375C32.5 26.25 28.125 28.125 23.75 28.75C24.375 29.375 25 30.625 25 32.5V37.5C25 38.125 25 38.75 26.25 38.75C28.125 38.75 40 33.125 40 20C40 8.75 31.25 0 20 0Z" fill="white"/>
</svg>
