<svg width="23" height="23" viewBox="0 0 23 23" fill="none" xmlns="http://www.w3.org/2000/svg">
<mask id="path-1-inside-1" fill="white">
<path d="M21.0832 4.88168C20.2271 3.12474 17.761 1.68724 14.8924 2.52418C13.5216 2.92013 12.3256 3.76924 11.4999 4.93279C10.6741 3.76924 9.47814 2.92013 8.10737 2.52418C5.23237 1.70001 2.77265 3.12474 1.91654 4.88168C0.71543 7.3414 1.21376 10.1078 3.39876 13.1042C5.11099 15.4489 7.55793 17.8256 11.1102 20.5856C11.2224 20.6731 11.3607 20.7207 11.5031 20.7207C11.6454 20.7207 11.7837 20.6731 11.896 20.5856C15.4418 17.832 17.8952 15.4745 19.6074 13.1042C21.786 10.1078 22.2843 7.3414 21.0832 4.88168V4.88168Z"/>
</mask>
<path d="M21.0832 4.88168C20.2271 3.12474 17.761 1.68724 14.8924 2.52418C13.5216 2.92013 12.3256 3.76924 11.4999 4.93279C10.6741 3.76924 9.47814 2.92013 8.10737 2.52418C5.23237 1.70001 2.77265 3.12474 1.91654 4.88168C0.71543 7.3414 1.21376 10.1078 3.39876 13.1042C5.11099 15.4489 7.55793 17.8256 11.1102 20.5856C11.2224 20.6731 11.3607 20.7207 11.5031 20.7207C11.6454 20.7207 11.7837 20.6731 11.896 20.5856C15.4418 17.832 17.8952 15.4745 19.6074 13.1042C21.786 10.1078 22.2843 7.3414 21.0832 4.88168V4.88168Z" stroke="#C38686" stroke-width="4" mask="url(#path-1-inside-1)"/>
</svg>
