<svg width="37" height="37" viewBox="0 0 37 37" fill="none" xmlns="http://www.w3.org/2000/svg">
<path d="M7.25453 0.00952148C3.269 0.00952148 0.00708008 3.27137 0.00708008 7.25697V29.7471C0.00708008 33.7326 3.26893 36.9934 7.25453 36.9934H29.7447C33.7302 36.9934 36.9909 33.7327 36.9909 29.7471V7.25697C36.9909 3.27144 33.7302 0.00952148 29.7447 0.00952148H7.25453ZM9.07737 6.1126C10.9883 6.1126 12.1654 7.36712 12.2018 9.01617C12.2018 10.6288 10.9883 11.9186 9.04041 11.9186H9.00456C7.12995 11.9186 5.91831 10.6289 5.91831 9.01617C5.91831 7.36716 7.16662 6.1126 9.07734 6.1126H9.07737ZM25.5453 13.8201C29.2205 13.8201 31.9756 16.2222 31.9756 21.3842V31.0208H26.3903V22.0303C26.3903 19.7711 25.582 18.2297 23.5607 18.2297C22.0176 18.2297 21.0979 19.2686 20.6941 20.2722C20.5466 20.6313 20.5103 21.1327 20.5103 21.635V31.0208H14.925C14.925 31.0208 14.9983 15.7911 14.925 14.2142H20.5114V16.5942C21.2537 15.449 22.5813 13.82 25.5453 13.82V13.8201ZM6.24776 14.2154H11.833V31.0209H6.24776V14.2154V14.2154Z" fill="white"/>
</svg>
