<svg width="29" height="29" viewBox="0 0 29 29" fill="none" xmlns="http://www.w3.org/2000/svg">
<path d="M14.5 16.3125C13.6038 16.3125 12.7277 16.0468 11.9826 15.5489C11.2374 15.051 10.6566 14.3433 10.3137 13.5153C9.97071 12.6873 9.88098 11.7762 10.0558 10.8973C10.2307 10.0183 10.6622 9.21088 11.2959 8.57718C11.9296 7.94347 12.737 7.51191 13.616 7.33707C14.495 7.16223 15.4061 7.25196 16.234 7.59492C17.062 7.93788 17.7697 8.51866 18.2676 9.26383C18.7655 10.009 19.0313 10.8851 19.0313 11.7813C19.0298 12.9826 18.552 14.1343 17.7025 14.9837C16.853 15.8332 15.7013 16.3111 14.5 16.3125ZM14.5 9.0625C13.9623 9.0625 13.4366 9.22195 12.9895 9.52069C12.5424 9.81943 12.194 10.244 11.9882 10.7408C11.7824 11.2376 11.7286 11.7843 11.8335 12.3117C11.9384 12.839 12.1973 13.3235 12.5776 13.7037C12.9578 14.0839 13.4422 14.3429 13.9696 14.4478C14.497 14.5527 15.0436 14.4988 15.5404 14.2931C16.0372 14.0873 16.4618 13.7388 16.7606 13.2917C17.0593 12.8446 17.2188 12.319 17.2188 11.7813C17.218 11.0604 16.9314 10.3693 16.4217 9.8596C15.9119 9.34989 15.2208 9.06322 14.5 9.0625Z" fill="#468BDC"/>
<path d="M14.5 27.1875L6.85489 18.1712C6.74866 18.0358 6.64353 17.8996 6.53951 17.7625C5.23359 16.0422 4.5281 13.941 4.53126 11.7812C4.53126 9.13737 5.58154 6.60178 7.45104 4.73228C9.32054 2.86278 11.8561 1.8125 14.5 1.8125C17.1439 1.8125 19.6795 2.86278 21.549 4.73228C23.4185 6.60178 24.4688 9.13737 24.4688 11.7812C24.4719 13.9401 23.7668 16.0403 22.4614 17.7598L22.4605 17.7625C22.4605 17.7625 22.1886 18.1196 22.1479 18.1676L14.5 27.1875ZM7.98589 16.6705C7.9877 16.6705 8.19795 16.9496 8.24598 17.0094L14.5 24.3854L20.7622 16.9994C20.8021 16.9496 21.0141 16.6687 21.015 16.6678C22.0818 15.2623 22.6584 13.5457 22.6563 11.7812C22.6563 9.61808 21.7969 7.5435 20.2673 6.01391C18.7378 4.48432 16.6632 3.625 14.5 3.625C12.3368 3.625 10.2623 4.48432 8.73267 6.01391C7.20308 7.5435 6.34376 9.61808 6.34376 11.7812C6.34186 13.5468 6.91903 15.2643 7.98679 16.6705H7.98589Z" fill="#468BDC"/>
</svg>
