<svg width="161" height="105" viewBox="0 0 161 105" fill="none" xmlns="http://www.w3.org/2000/svg">
<path d="M92.1747 54.3396L96.0759 56.5903L87.4951 71.4152L86.1919 73.6667H88.7933H96.1683V80.5C96.1683 84.5225 94.5704 88.3802 91.7261 91.2245C88.8818 94.0688 85.0241 95.6667 81.0016 95.6667H68.5016C64.4792 95.6667 60.6215 94.0688 57.7772 91.2245C54.9329 88.3802 53.335 84.5225 53.335 80.5V73.6667H80.1266H80.9917L81.425 72.9179L92.1747 54.3396ZM21.0016 24.8333H20.0016V19.5H37.835V24.8333H36.835H35.0133L35.3628 26.6211C37.5283 37.6984 39.5173 48.6438 40.6349 59.116C41.9458 71.7098 41.9993 83.6634 42.0015 95.6667H15.8351C15.8372 83.6632 15.8908 71.7096 17.2017 59.1156C18.3194 48.6435 20.3083 37.6983 22.4738 26.6211L22.8233 24.8333H21.0016Z" stroke="black" stroke-width="3"/>
<path d="M51.25 31H53.35L53.65 32.8H53.8C54 32.5 54.34 32.15 54.82 31.75C55.76 31.05 56.82 30.7 58 30.7C58.52 30.7 58.98 30.75 59.38 30.85L59.95 31L59.5 33.4H59.2C59.06 33.38 58.85 33.33 58.57 33.25C58.13 33.15 57.69 33.1 57.25 33.1C56.59 33.1 55.88 33.4 55.12 34C54.86 34.22 54.57 34.52 54.25 34.9V46H51.25V31ZM68.057 46.3C65.977 46.3 64.357 45.64 63.197 44.32C62.037 43 61.457 41.06 61.457 38.5C61.457 35.96 62.017 34.03 63.137 32.71C64.257 31.37 65.747 30.7 67.607 30.7C69.467 30.7 70.957 31.37 72.077 32.71C73.197 34.03 73.757 35.96 73.757 38.5V38.95L73.157 39.55H64.457C64.457 41.09 64.797 42.25 65.477 43.03C66.157 43.81 67.117 44.2 68.357 44.2C69.097 44.2 69.867 43.98 70.667 43.54C71.087 43.3 71.417 43.07 71.657 42.85H71.957L73.007 44.65C72.647 44.95 72.197 45.23 71.657 45.49C70.617 46.03 69.417 46.3 68.057 46.3ZM70.757 37.45C70.757 35.87 70.467 34.7 69.887 33.94C69.327 33.18 68.567 32.8 67.607 32.8C66.647 32.8 65.877 33.18 65.297 33.94C64.737 34.7 64.457 35.87 64.457 37.45H70.757ZM83.2035 46.3C81.1235 46.3 79.5035 45.64 78.3435 44.32C77.1835 43 76.6035 41.06 76.6035 38.5C76.6035 35.94 77.1635 34 78.2835 32.68C79.4235 31.36 80.9635 30.7 82.9035 30.7C84.2235 30.7 85.4235 30.98 86.5035 31.54C87.0235 31.78 87.4735 32.05 87.8535 32.35L86.8035 34.15H86.5035C86.2435 33.95 85.9135 33.73 85.5135 33.49C84.6735 33.03 83.9035 32.8 83.2035 32.8C82.0835 32.8 81.2035 33.25 80.5635 34.15C79.9235 35.05 79.6035 36.5 79.6035 38.5C79.6035 40.52 79.9335 41.98 80.5935 42.88C81.2735 43.76 82.2435 44.2 83.5035 44.2C84.2435 44.2 85.0135 43.98 85.8135 43.54C86.2335 43.3 86.5635 43.07 86.8035 42.85H87.1035L88.1535 44.65C87.7935 44.95 87.3435 45.23 86.8035 45.49C85.7635 46.03 84.5635 46.3 83.2035 46.3ZM92.5059 28.6C91.9859 28.6 91.5559 28.43 91.2159 28.09C90.8759 27.75 90.7059 27.32 90.7059 26.8C90.7059 26.28 90.8759 25.85 91.2159 25.51C91.5559 25.17 91.9859 25 92.5059 25C93.0259 25 93.4559 25.17 93.7959 25.51C94.1359 25.85 94.3059 26.28 94.3059 26.8C94.3059 27.32 94.1359 27.75 93.7959 28.09C93.4559 28.43 93.0259 28.6 92.5059 28.6ZM91.0059 46V31H94.0059V46H91.0059ZM98.5059 31H100.606L100.906 32.8H101.056C101.276 32.48 101.626 32.13 102.106 31.75C103.086 31.05 104.186 30.7 105.406 30.7C106.386 30.7 107.286 31 108.106 31.6C108.926 32.18 109.576 33.06 110.056 34.24C110.556 35.4 110.806 36.82 110.806 38.5C110.806 41.04 110.256 42.98 109.156 44.32C108.056 45.64 106.606 46.3 104.806 46.3C104.006 46.3 103.226 46.15 102.466 45.85C102.086 45.73 101.766 45.58 101.506 45.4V51.1L100.606 52H98.5059V31ZM104.356 44.2C105.396 44.2 106.226 43.75 106.846 42.85C107.486 41.93 107.806 40.48 107.806 38.5C107.806 36.6 107.506 35.2 106.906 34.3C106.326 33.4 105.576 32.95 104.656 32.95C103.916 32.95 103.166 33.25 102.406 33.85C102.086 34.13 101.786 34.43 101.506 34.75V43.6C101.706 43.7 101.976 43.8 102.316 43.9C102.996 44.1 103.676 44.2 104.356 44.2ZM114.561 46V25.9L115.461 25H117.561V46H114.561ZM126.111 46.3C124.551 46.3 123.331 45.89 122.451 45.07C121.591 44.23 121.161 43.09 121.161 41.65C121.161 40.23 121.671 39.13 122.691 38.35C123.731 37.55 125.371 37.15 127.611 37.15H130.011V36.4C130.011 35.22 129.731 34.33 129.171 33.73C128.631 33.11 127.861 32.8 126.861 32.8C126.141 32.8 125.361 33.03 124.521 33.49C124.101 33.73 123.781 33.95 123.561 34.15H123.261L122.211 32.35C122.611 32.05 123.061 31.78 123.561 31.54C124.641 30.98 125.841 30.7 127.161 30.7C128.301 30.7 129.311 30.95 130.191 31.45C131.071 31.93 131.761 32.61 132.261 33.49C132.761 34.35 133.011 35.32 133.011 36.4V46H130.911L130.611 44.2H130.461C130.181 44.6 129.831 44.95 129.411 45.25C128.531 45.95 127.431 46.3 126.111 46.3ZM126.861 44.05C127.601 44.05 128.351 43.75 129.111 43.15C129.451 42.87 129.751 42.57 130.011 42.25V39.25H127.611C126.471 39.25 125.611 39.47 125.031 39.91C124.451 40.35 124.161 40.93 124.161 41.65C124.161 42.43 124.381 43.03 124.821 43.45C125.281 43.85 125.961 44.05 126.861 44.05ZM137.354 31H139.454L139.754 32.8H139.904C140.124 32.48 140.474 32.13 140.954 31.75C141.934 31.05 143.034 30.7 144.254 30.7C145.754 30.7 146.974 31.18 147.914 32.14C148.874 33.08 149.354 34.3 149.354 35.8V46H146.354V35.8C146.354 34.96 146.084 34.28 145.544 33.76C145.024 33.22 144.344 32.95 143.504 32.95C142.764 32.95 142.014 33.25 141.254 33.85C140.934 34.13 140.634 34.43 140.354 34.75V46H137.354V31Z" fill="black"/>
</svg>
