<svg width="32" height="32" viewBox="0 0 32 32" fill="none" xmlns="http://www.w3.org/2000/svg">
<path d="M3.75117 20.6226L2.06228 27.9115C2.00402 28.1779 2.00602 28.454 2.06813 28.7196C2.13024 28.9852 2.25089 29.2335 2.42127 29.4465C2.59165 29.6595 2.80746 29.8317 3.05293 29.9506C3.2984 30.0695 3.56732 30.132 3.84006 30.1337C3.96715 30.1465 4.0952 30.1465 4.22228 30.1337L11.5556 28.4448L25.6356 14.4181L17.7778 6.57812L3.75117 20.6226Z" fill="black"/>
<path d="M30.0622 7.39629L24.8178 2.15184C24.473 1.80879 24.0064 1.61621 23.52 1.61621C23.0336 1.61621 22.567 1.80879 22.2222 2.15184L19.3066 5.0674L27.1555 12.9163L30.0711 10.0007C30.2417 9.82925 30.3768 9.6258 30.4687 9.40203C30.5607 9.17827 30.6075 8.93857 30.6067 8.69667C30.6059 8.45476 30.5574 8.21539 30.4639 7.99226C30.3705 7.76912 30.234 7.56661 30.0622 7.39629Z" fill="black"/>
</svg>
