<svg width="17" height="17" viewBox="0 0 17 17" fill="none" xmlns="http://www.w3.org/2000/svg">
<path fill-rule="evenodd" clip-rule="evenodd" d="M8.91047 3.15826C8.86251 3.06094 8.78826 2.97898 8.69613 2.92167C8.604 2.86436 8.49766 2.83398 8.38916 2.83398C8.28065 2.83398 8.17432 2.86436 8.08219 2.92167C7.99005 2.97898 7.9158 3.06094 7.86784 3.15826L6.46604 5.99906L3.33117 6.4547C3.22378 6.4702 3.12287 6.51545 3.03987 6.58534C2.95687 6.65522 2.89509 6.74694 2.86152 6.85013C2.82795 6.95331 2.82394 7.06382 2.84994 7.16917C2.87593 7.27451 2.9309 7.37047 3.00862 7.44619L5.27753 9.65757L4.74169 12.7797C4.72337 12.8865 4.73533 12.9964 4.7762 13.0968C4.81707 13.1973 4.88522 13.2843 4.97296 13.348C5.06069 13.4118 5.1645 13.4497 5.27266 13.4575C5.38081 13.4653 5.489 13.4427 5.58498 13.3922L8.38916 11.9184L11.1933 13.3922C11.2893 13.4425 11.3974 13.465 11.5055 13.4571C11.6135 13.4492 11.7172 13.4113 11.8049 13.3476C11.8925 13.2839 11.9606 13.1969 12.0015 13.0966C12.0423 12.9962 12.0543 12.8865 12.036 12.7797L11.5014 9.65757L13.7691 7.44619C13.8468 7.37051 13.9018 7.2746 13.9278 7.16929C13.9538 7.06399 13.9499 6.95351 13.9164 6.85035C13.8829 6.74718 13.8212 6.65545 13.7383 6.58553C13.6553 6.51561 13.5545 6.47029 13.4471 6.4547L10.3123 5.99906L8.91047 3.15826Z" fill="#F0BF00"/>
<rect x="0.5" y="0.5" width="16" height="16" rx="8" stroke="#F0BF00"/>
</svg>
