<svg width="17" height="17" viewBox="0 0 17 17" fill="none" xmlns="http://www.w3.org/2000/svg">
<path d="M10.7924 12.3583L10.938 12.513L11.0837 12.3583L11.7277 11.674L11.8567 11.5369L11.7277 11.3999L9.16004 8.67175V3.57031V3.37031H8.96004H8.04004H7.84004V3.57031V9.14206V9.22138L7.8944 9.27914L10.7924 12.3583Z" fill="#404DC1" stroke="#404DC1" stroke-width="0.4"/>
<path d="M0.629687 8.49969C0.629687 12.8513 4.14807 16.3697 8.49969 16.3697C12.8513 16.3697 16.3697 12.8513 16.3697 8.49969C16.3697 4.14807 12.8513 0.629687 8.49969 0.629687C4.14807 0.629687 0.629687 4.14807 0.629687 8.49969ZM1.64969 8.49969C1.64969 4.7093 4.7093 1.64969 8.49969 1.64969C12.2901 1.64969 15.3497 4.7093 15.3497 8.49969C15.3497 12.2901 12.2901 15.3497 8.49969 15.3497C4.7093 15.3497 1.64969 12.2901 1.64969 8.49969Z" fill="#404DC1" stroke="#404DC1" stroke-width="0.1"/>
</svg>
