<svg width="55" height="54" viewBox="0 0 55 54" fill="none" xmlns="http://www.w3.org/2000/svg">
<path d="M16.042 40.5V38.25C16.042 35.2663 17.2492 32.4048 19.3981 30.295C21.5469 28.1853 24.4614 27 27.5003 27C30.5393 27 33.4537 28.1853 35.6026 30.295C37.7514 32.4048 38.9587 35.2663 38.9587 38.25V40.5" stroke="black" stroke-width="2" stroke-linecap="round"/>
<path d="M27.5 27C29.3234 27 31.072 26.2888 32.3614 25.023C33.6507 23.7571 34.375 22.0402 34.375 20.25C34.375 18.4598 33.6507 16.7429 32.3614 15.477C31.072 14.2112 29.3234 13.5 27.5 13.5C25.6766 13.5 23.928 14.2112 22.6386 15.477C21.3493 16.7429 20.625 18.4598 20.625 20.25C20.625 22.0402 21.3493 23.7571 22.6386 25.023C23.928 26.2888 25.6766 27 27.5 27V27Z" stroke="black" stroke-width="2" stroke-linecap="round" stroke-linejoin="round"/>
<path d="M48.125 8.1V45.9C48.125 46.258 47.9801 46.6014 47.7223 46.8546C47.4644 47.1078 47.1147 47.25 46.75 47.25H8.25C7.88533 47.25 7.53559 47.1078 7.27773 46.8546C7.01987 46.6014 6.875 46.258 6.875 45.9V8.1C6.875 7.74196 7.01987 7.39858 7.27773 7.14541C7.53559 6.89223 7.88533 6.75 8.25 6.75H46.75C47.1147 6.75 47.4644 6.89223 47.7223 7.14541C47.9801 7.39858 48.125 7.74196 48.125 8.1V8.1Z" stroke="black" stroke-width="2" stroke-linecap="round" stroke-linejoin="round"/>
</svg>
