<svg width="45" height="43" viewBox="0 0 45 43" fill="none" xmlns="http://www.w3.org/2000/svg">
<path d="M44.0751 39.6599C40.9263 34.2367 35.8837 30.1691 29.9169 28.2393C32.7754 26.5385 34.9965 23.9463 36.239 20.8609C37.4815 17.7755 37.6768 14.3675 36.7948 11.1604C35.9128 7.95322 34.0024 5.12431 31.3569 3.10813C28.7114 1.09195 25.4772 0 22.151 0C18.8248 0 15.5905 1.09195 12.945 3.10813C10.2996 5.12431 8.3891 7.95322 7.50712 11.1604C6.62514 14.3675 6.8204 17.7755 8.06293 20.8609C9.30545 23.9463 11.5265 26.5385 14.385 28.2393C8.41833 30.169 3.37573 34.2364 0.226859 39.6595C0.115876 39.8513 0.0437631 40.0631 0.0146375 40.2828C-0.0144882 40.5025 -5.61064e-05 40.7258 0.0571096 40.9399C0.114275 41.154 0.213055 41.3548 0.347809 41.5307C0.482563 41.7067 0.650653 41.8543 0.84248 41.9653C1.03431 42.0763 1.24612 42.1484 1.46581 42.1775C1.68551 42.2067 1.90879 42.1922 2.12291 42.1351C2.33703 42.0779 2.53779 41.9791 2.71374 41.8444C2.88968 41.7096 3.03736 41.5415 3.14834 41.3497C5.07481 38.0148 7.84502 35.2456 11.1806 33.3203C14.5163 31.395 18.2998 30.3815 22.1512 30.3815C26.0026 30.3816 29.7861 31.3952 33.1217 33.3205C36.4573 35.2459 39.2274 38.0152 41.1538 41.3501C41.2648 41.5419 41.4125 41.71 41.5884 41.8448C41.7643 41.9795 41.9651 42.0783 42.1792 42.1354C42.3933 42.1926 42.6166 42.207 42.8363 42.1779C43.0559 42.1487 43.2677 42.0766 43.4596 41.9656C43.6514 41.8547 43.8194 41.707 43.9542 41.531C44.0889 41.3551 44.1877 41.1543 44.2449 40.9402C44.302 40.7261 44.3164 40.5029 44.2873 40.2832C44.2582 40.0635 44.1861 39.8517 44.0751 39.6599ZM10.3384 15.1941C10.3384 12.8578 11.0311 10.574 12.3291 8.63142C13.6271 6.68886 15.472 5.17482 17.6304 4.28076C19.7889 3.3867 22.164 3.15278 24.4554 3.60856C26.7468 4.06435 28.8516 5.18938 30.5036 6.84139C32.1556 8.4934 33.2806 10.5982 33.7364 12.8896C34.1922 15.181 33.9582 17.5561 33.0642 19.7145C32.1701 21.873 30.6561 23.7178 28.7135 25.0158C26.771 26.3138 24.4872 27.0066 22.1509 27.0066C19.0191 27.003 16.0166 25.7573 13.8021 23.5428C11.5876 21.3283 10.3419 18.3259 10.3384 15.1941Z" fill="black"/>
</svg>
